<?xml version="1.0" encoding="UTF-8"?><svg id="Logo-Vert" xmlns="http://www.w3.org/2000/svg" xmlns:xlink="http://www.w3.org/1999/xlink" viewBox="0 0 200 180"><defs><style>.cls-1{fill:#fff;}.cls-2{fill:#007b7f;}.cls-3{fill:url(#Gradient_teal_mint_FINAL);}.cls-4{fill:#0d257a;}.cls-5{fill:none;}</style><radialGradient id="Gradient_teal_mint_FINAL" cx="4233.51" cy="2224.06" fx="4233.51" fy="2224.06" r="31.76" gradientTransform="translate(4667.11 1481.61) rotate(-135) scale(1 -1)" gradientUnits="userSpaceOnUse"><stop offset=".17" stop-color="#ddffe7"/><stop offset=".29" stop-color="#b1e4d2"/><stop offset=".48" stop-color="#72bfb4"/><stop offset=".65" stop-color="#41a19d"/><stop offset=".8" stop-color="#1d8c8c"/><stop offset=".92" stop-color="#077f82"/><stop offset="1" stop-color="#007b7f"/></radialGradient></defs><g id="Logo-Vert-Color"><rect id="bground" class="cls-5" x="0" width="200" height="180"/><g id="Logo-Vert-Color-2"><g id="Icon-Color"><g id="tick_marks"><path class="cls-4" d="M100.92,32.04c.28,0,.5-.23,.5-.5v-1.96c0-.28-.23-.5-.5-.5s-.5,.23-.5,.5v1.96c0,.28,.23,.5,.5,.5Z"/><path class="cls-4" d="M95.94,32.48c.27-.05,.46-.31,.41-.58l-.34-1.93c-.05-.27-.31-.46-.58-.41s-.46,.31-.41,.58l.34,1.93c.05,.27,.31,.46,.58,.41Z"/><path class="cls-4" d="M91.11,33.77c.26-.1,.4-.38,.3-.65l-.67-1.84c-.1-.26-.38-.4-.65-.3s-.4,.38-.3,.65l.67,1.84c.1,.26,.38,.4,.65,.3Z"/><path class="cls-4" d="M86.58,35.88c.24-.14,.32-.45,.18-.69l-.98-1.69c-.14-.24-.45-.32-.69-.18s-.32,.45-.18,.69l.98,1.69c.14,.24,.45,.32,.69,.18Z"/><path class="cls-4" d="M82.49,38.75c.21-.18,.24-.5,.06-.71l-1.26-1.5c-.18-.21-.5-.24-.71-.06s-.24,.5-.06,.71l1.26,1.5c.18,.21,.5,.24,.71,.06Z"/><path class="cls-4" d="M78.95,42.29c.18-.21,.15-.53-.06-.71l-1.5-1.26c-.21-.18-.53-.15-.71,.06s-.15,.53,.06,.71l1.5,1.26c.21,.18,.53,.15,.71-.06Z"/><path class="cls-4" d="M76.08,46.38c.14-.24,.06-.55-.18-.69l-1.69-.98c-.24-.14-.55-.06-.69,.18s-.06,.55,.18,.69l1.69,.98c.24,.14,.55,.06,.69-.18Z"/><path class="cls-4" d="M73.97,50.91c.1-.26-.04-.55-.3-.65l-1.84-.67c-.26-.1-.55,.04-.65,.3s.04,.55,.3,.65l1.84,.67c.26,.1,.55-.04,.65-.3Z"/><path class="cls-4" d="M72.68,55.74c.05-.27-.13-.54-.41-.58l-1.93-.34c-.27-.05-.54,.13-.58,.41s.13,.54,.41,.58l1.93,.34c.27,.05,.54-.13,.58-.41Z"/><path class="cls-4" d="M72.24,60.72c0-.28-.23-.5-.5-.5h-1.96c-.28,0-.5,.23-.5,.5,0,.28,.23,.5,.5,.5h1.96c.28,0,.5-.23,.5-.5Z"/><path class="cls-4" d="M72.68,65.7c-.05-.27-.31-.46-.58-.41l-1.93,.34c-.27,.05-.46,.31-.41,.58s.31,.46,.58,.41l1.93-.34c.27-.05,.46-.31,.41-.58Z"/><path class="cls-4" d="M73.97,70.53c-.1-.26-.38-.4-.65-.3l-1.84,.67c-.26,.1-.4,.38-.3,.65s.38,.4,.65,.3l1.84-.67c.26-.1,.4-.38,.3-.65Z"/><path class="cls-4" d="M91.11,87.66c-.26-.1-.55,.04-.65,.3l-.67,1.84c-.1,.26,.04,.55,.3,.65s.55-.04,.65-.3l.67-1.84c.1-.26-.04-.55-.3-.65Z"/><path class="cls-4" d="M95.94,88.96c-.27-.05-.54,.13-.58,.41l-.34,1.93c-.05,.27,.13,.54,.41,.58s.54-.13,.58-.41l.34-1.93c.05-.27-.13-.54-.41-.58Z"/><path class="cls-4" d="M100.92,89.39c-.28,0-.5,.23-.5,.5v1.96c0,.28,.23,.5,.5,.5s.5-.23,.5-.5v-1.96c0-.28-.23-.5-.5-.5Z"/><path class="cls-4" d="M105.9,88.96c-.27,.05-.46,.31-.41,.58l.34,1.93c.05,.27,.31,.46,.58,.41s.46-.31,.41-.58l-.34-1.93c-.05-.27-.31-.46-.58-.41Z"/><path class="cls-4" d="M110.72,87.66c-.26,.1-.4,.38-.3,.65l.67,1.84c.1,.26,.38,.4,.65,.3s.4-.38,.3-.65l-.67-1.84c-.1-.26-.38-.4-.65-.3Z"/><path class="cls-4" d="M115.25,85.55c-.24,.14-.32,.45-.18,.69l.98,1.69c.14,.24,.45,.32,.69,.18s.32-.45,.18-.69l-.98-1.69c-.14-.24-.45-.32-.69-.18Z"/><path class="cls-4" d="M119.35,82.68c-.21,.18-.24,.5-.06,.71l1.26,1.5c.18,.21,.5,.24,.71,.06s.24-.5,.06-.71l-1.26-1.5c-.18-.21-.5-.24-.71-.06Z"/><path class="cls-4" d="M122.88,79.15c-.18,.21-.15,.53,.06,.71l1.5,1.26c.21,.18,.53,.15,.71-.06s.15-.53-.06-.71l-1.5-1.26c-.21-.18-.53-.15-.71,.06Z"/><path class="cls-4" d="M125.75,75.06c-.14,.24-.06,.55,.18,.69l1.69,.98c.24,.14,.55,.06,.69-.18s.06-.55-.18-.69l-1.69-.98c-.24-.14-.55-.06-.69,.18Z"/><path class="cls-4" d="M127.86,70.53c-.1,.26,.04,.55,.3,.65l1.84,.67c.26,.1,.55-.04,.65-.3s-.04-.55-.3-.65l-1.84-.67c-.26-.1-.55,.04-.65,.3Z"/><path class="cls-4" d="M129.16,65.7c-.05,.27,.13,.54,.41,.58l1.93,.34c.27,.05,.54-.13,.58-.41s-.13-.54-.41-.58l-1.93-.34c-.27-.05-.54,.13-.58,.41Z"/><path class="cls-4" d="M129.59,60.72c0,.28,.23,.5,.5,.5h1.96c.28,0,.5-.23,.5-.5,0-.28-.23-.5-.5-.5h-1.96c-.28,0-.5,.23-.5,.5Z"/><path class="cls-4" d="M129.16,55.74c.05,.27,.31,.46,.58,.41l1.93-.34c.27-.05,.46-.31,.41-.58s-.31-.46-.58-.41l-1.93,.34c-.27,.05-.46,.31-.41,.58Z"/><path class="cls-4" d="M127.86,50.91c.1,.26,.38,.4,.65,.3l1.84-.67c.26-.1,.4-.38,.3-.65s-.38-.4-.65-.3l-1.84,.67c-.26,.1-.4,.38-.3,.65Z"/><path class="cls-4" d="M110.72,33.77c.26,.1,.55-.04,.65-.3l.67-1.84c.1-.26-.04-.55-.3-.65s-.55,.04-.65,.3l-.67,1.84c-.1,.26,.04,.55,.3,.65Z"/><path class="cls-4" d="M105.9,32.48c.27,.05,.54-.13,.58-.41l.34-1.93c.05-.27-.13-.54-.41-.58s-.54,.13-.58,.41l-.34,1.93c-.05,.27,.13,.54,.41,.58Z"/></g><polygon id="star_rose" class="cls-2" points="107.9 63.61 127.82 60.72 104.33 57.31 100.92 33.82 98.03 53.74 81.9 41.7 93.94 57.83 74.02 60.72 97.51 64.13 100.92 87.62 103.81 67.7 119.94 79.74 107.9 63.61"/><polygon id="needle" class="cls-3" points="131.69 29.94 108.77 68.57 70.14 91.49 93.06 52.87 131.69 29.94"/><g id="center_circle"><circle id="center_circle_2_outer" class="cls-1" cx="100.92" cy="60.72" r="7.02"/><circle id="center_circle_1_inner" class="cls-4" cx="100.92" cy="60.72" r="5.78"/></g><g id="outer_circle"><path class="cls-4" d="M72.52,77.75c-2.99-4.98-4.71-10.8-4.71-17.03,0-18.28,14.82-33.11,33.11-33.11,6.23,0,12.05,1.72,17.03,4.71l5.13-3.04c-6.27-4.42-13.9-7.03-22.16-7.03-21.25,0-38.47,17.22-38.47,38.47,0,8.25,2.61,15.89,7.03,22.16l3.04-5.13Z"/><path class="cls-4" d="M129.31,43.69c2.99,4.98,4.71,10.8,4.71,17.03,0,18.28-14.82,33.11-33.11,33.11-6.23,0-12.05-1.72-17.03-4.71l-5.13,3.04c6.27,4.42,13.9,7.03,22.16,7.03,21.25,0,38.47-17.22,38.47-38.47,0-8.25-2.61-15.89-7.03-22.16l-3.04,5.13Z"/></g></g><g id="Wordmark-Stacked-Blue"><g id="LEARNING_outlined"><path class="cls-4" d="M40.6,156.18v1.43h-7.12v-12.56h1.69v11.13h5.43Z"/><path class="cls-4" d="M57.51,156.22v1.38h-7.75v-12.56h7.74v1.38h-6.04v4.17h4.89v1.33h-4.89v4.29h6.05Z"/><path class="cls-4" d="M77.39,157.61h-1.31c-.15,0-.27-.04-.37-.11-.09-.08-.16-.17-.21-.29l-1.17-3.03h-5.64l-1.17,3.03c-.03,.1-.1,.2-.2,.28-.1,.08-.22,.12-.37,.12h-1.31l5.02-12.56h1.72l5.02,12.56Zm-3.54-4.66l-1.97-5.11c-.06-.15-.12-.33-.18-.53-.06-.2-.13-.42-.18-.64-.12,.47-.25,.87-.38,1.18l-1.97,5.1h4.69Z"/><path class="cls-4" d="M95.62,157.61h-1.51c-.31,0-.54-.12-.68-.36l-3.26-4.49c-.1-.14-.21-.24-.32-.3-.11-.06-.29-.09-.53-.09h-1.29v5.24h-1.69v-12.56h3.55c.79,0,1.48,.08,2.06,.24,.58,.16,1.06,.39,1.43,.7s.66,.67,.84,1.1c.18,.43,.27,.91,.27,1.44,0,.44-.07,.86-.21,1.24s-.34,.73-.61,1.04c-.27,.31-.59,.57-.97,.78-.38,.22-.82,.38-1.3,.49,.22,.12,.4,.3,.56,.53l3.66,4.99Zm-5.8-6.48c.49,0,.92-.06,1.3-.18,.38-.12,.69-.29,.95-.51s.45-.48,.57-.78c.13-.3,.19-.64,.19-1.01,0-.75-.25-1.31-.74-1.69-.49-.38-1.23-.57-2.21-.57h-1.86v4.74h1.79Z"/><path class="cls-4" d="M114.79,145.05v12.56h-.85c-.13,0-.25-.02-.34-.07s-.18-.13-.27-.24l-7.26-9.47c.01,.15,.02,.29,.03,.43,0,.14,0,.27,0,.39v8.95h-1.49v-12.56h.88c.08,0,.14,0,.19,.01,.05,0,.1,.02,.14,.04s.08,.05,.12,.09c.04,.04,.08,.09,.13,.15l7.27,9.46c-.01-.15-.02-.3-.03-.44,0-.14-.01-.28-.01-.41v-8.89h1.49Z"/><path class="cls-4" d="M126.99,157.61h-1.7v-12.56h1.7v12.56Z"/><path class="cls-4" d="M147.66,145.05v12.56h-.85c-.13,0-.25-.02-.34-.07s-.18-.13-.27-.24l-7.26-9.47c.01,.15,.02,.29,.03,.43,0,.14,0,.27,0,.39v8.95h-1.49v-12.56h.88c.08,0,.14,0,.19,.01,.05,0,.1,.02,.14,.04s.08,.05,.12,.09c.04,.04,.08,.09,.13,.15l7.27,9.46c-.01-.15-.02-.3-.03-.44,0-.14-.01-.28-.01-.41v-8.89h1.49Z"/><path class="cls-4" d="M168.36,151.57v4.82c-.63,.46-1.3,.8-2.02,1.02-.72,.23-1.5,.34-2.35,.34-1.01,0-1.92-.16-2.73-.47s-1.51-.75-2.08-1.31-1.02-1.24-1.33-2.03c-.31-.79-.46-1.66-.46-2.6s.15-1.83,.45-2.62c.3-.79,.73-1.47,1.28-2.03s1.23-1,2.02-1.31c.79-.31,1.68-.46,2.66-.46,.5,0,.96,.04,1.38,.11s.82,.18,1.18,.32c.36,.14,.7,.3,1.01,.5,.31,.2,.6,.42,.87,.66l-.48,.77c-.08,.12-.17,.19-.29,.22-.12,.03-.25,0-.4-.08-.14-.08-.3-.18-.48-.3-.18-.12-.4-.23-.66-.34-.26-.11-.57-.2-.92-.28-.35-.08-.77-.11-1.26-.11-.71,0-1.35,.12-1.92,.35-.57,.23-1.06,.56-1.46,.99-.4,.43-.71,.95-.93,1.56-.22,.61-.32,1.3-.32,2.06s.11,1.49,.34,2.12c.22,.62,.55,1.15,.96,1.59,.42,.44,.92,.77,1.52,.99,.6,.23,1.26,.34,2.01,.34,.58,0,1.1-.07,1.56-.2s.9-.31,1.33-.55v-2.76h-1.95c-.11,0-.2-.03-.27-.1-.07-.06-.1-.14-.1-.24v-.96h3.86Z"/></g><g id="NAVIGANT_outlined"><path class="cls-4" d="M47.32,118.87v16.49h-1.57c-.24,0-.45-.04-.61-.12-.16-.08-.32-.21-.47-.41l-8.61-10.99c.05,.5,.07,.97,.07,1.39v10.13h-2.7v-16.49h1.61c.13,0,.24,0,.34,.02,.09,.01,.18,.03,.25,.07s.14,.08,.21,.15c.07,.06,.14,.15,.23,.26l8.64,11.04c-.02-.27-.04-.53-.06-.79s-.02-.5-.02-.72v-10.02h2.7Z"/><path class="cls-4" d="M67.83,135.36h-2.37c-.27,0-.48-.07-.65-.2-.17-.13-.29-.3-.38-.5l-1.23-3.36h-6.83l-1.23,3.36c-.06,.17-.18,.33-.35,.48-.17,.15-.39,.22-.65,.22h-2.4l6.49-16.49h3.13l6.48,16.49Zm-5.42-6.23l-2.01-5.48c-.1-.24-.2-.53-.31-.87-.11-.33-.21-.7-.32-1.08-.1,.39-.2,.75-.31,1.09-.11,.34-.21,.63-.31,.88l-2,5.46h5.25Z"/><path class="cls-4" d="M85.08,118.87l-6.66,16.49h-2.77l-6.66-16.49h2.46c.27,0,.48,.06,.65,.19s.29,.3,.38,.5l3.89,10.06c.13,.33,.25,.69,.37,1.08,.12,.39,.23,.8,.34,1.23,.09-.43,.19-.83,.3-1.23,.11-.39,.22-.75,.35-1.08l3.87-10.06c.06-.17,.18-.33,.36-.48,.18-.15,.4-.22,.66-.22h2.48Z"/><path class="cls-4" d="M92.58,135.36h-3.08v-16.49h3.08v16.49Z"/><path class="cls-4" d="M112.57,127.09v6.67c-.84,.62-1.73,1.07-2.67,1.35s-1.96,.43-3.04,.43c-1.35,0-2.56-.21-3.66-.63s-2.02-1-2.79-1.75c-.77-.74-1.37-1.63-1.78-2.67s-.63-2.16-.63-3.39,.2-2.38,.6-3.41c.4-1.03,.97-1.92,1.72-2.67s1.64-1.32,2.7-1.73c1.06-.41,2.24-.62,3.56-.62,.67,0,1.29,.05,1.88,.16s1.12,.25,1.62,.44c.5,.19,.95,.41,1.36,.68,.41,.27,.79,.56,1.13,.88l-.88,1.39c-.14,.22-.32,.35-.54,.4-.22,.05-.46,0-.72-.17-.25-.14-.5-.29-.75-.43-.25-.14-.53-.27-.84-.38-.31-.11-.65-.19-1.04-.26s-.83-.1-1.33-.1c-.81,0-1.55,.14-2.21,.41s-1.22,.67-1.68,1.17c-.46,.51-.82,1.12-1.07,1.84-.25,.71-.38,1.51-.38,2.4,0,.94,.14,1.78,.41,2.53s.65,1.37,1.14,1.88c.49,.51,1.08,.91,1.77,1.17,.69,.27,1.46,.41,2.31,.41,.61,0,1.15-.06,1.63-.19,.48-.13,.95-.3,1.4-.52v-2.99h-2.08c-.2,0-.35-.06-.46-.17-.11-.11-.17-.24-.17-.41v-1.73h5.47Z"/><path class="cls-4" d="M132.19,135.36h-2.37c-.27,0-.48-.07-.65-.2-.17-.13-.29-.3-.38-.5l-1.23-3.36h-6.83l-1.23,3.36c-.06,.17-.18,.33-.35,.48-.17,.15-.39,.22-.65,.22h-2.4l6.49-16.49h3.13l6.48,16.49Zm-5.42-6.23l-2.01-5.48c-.1-.24-.2-.53-.31-.87-.11-.33-.21-.7-.32-1.08-.1,.39-.2,.75-.31,1.09-.11,.34-.21,.63-.31,.88l-2,5.46h5.25Z"/><path class="cls-4" d="M150.51,118.87v16.49h-1.57c-.24,0-.45-.04-.61-.12-.16-.08-.32-.21-.47-.41l-8.61-10.99c.05,.5,.07,.97,.07,1.39v10.13h-2.7v-16.49h1.61c.13,0,.24,0,.34,.02,.09,.01,.18,.03,.25,.07s.14,.08,.21,.15c.07,.06,.14,.15,.23,.26l8.64,11.04c-.02-.27-.04-.53-.06-.79s-.02-.5-.02-.72v-10.02h2.7Z"/><path class="cls-4" d="M168.42,121.39h-4.97v13.97h-3.07v-13.97h-4.97v-2.52h13.01v2.52Z"/></g></g></g></g></svg>